<svg width="506" height="457" viewBox="0 0 506 457" fill="none" xmlns="http://www.w3.org/2000/svg">
<rect width="506" height="457" rx="100" fill="#6200EE"/>
<line x1="215" y1="155" x2="215" y2="205" stroke="black" stroke-width="6"/>
<line x1="266" y1="155" x2="266" y2="205" stroke="black" stroke-width="6"/>
<line x1="316" y1="155" x2="316" y2="205" stroke="black" stroke-width="6"/>
<path d="M314.621 273.128C300.701 273.128 289.426 284.054 289.379 297.587C289.379 311.075 300.654 322 314.621 322C328.541 322 339.816 311.075 339.816 297.587C339.816 284.098 328.541 273.128 314.621 273.128ZM314.621 312.244C306.269 312.244 299.494 305.679 299.494 297.587C299.494 289.494 306.269 282.93 314.621 282.93C322.973 282.93 329.747 289.494 329.747 297.587C329.747 305.679 322.973 312.244 314.621 312.244Z" fill="#010101"/>
<path d="M213.747 273.128C199.827 273.128 188.506 284.054 188.506 297.587C188.506 311.12 199.781 322 213.747 322C227.667 322 238.942 311.075 238.942 297.587C238.942 284.098 227.667 273.128 213.747 273.128ZM213.747 312.244C205.395 312.244 198.621 305.679 198.621 297.587C198.621 289.494 205.395 282.93 213.747 282.93C222.099 282.93 228.874 289.494 228.874 297.587C228.874 305.679 222.099 312.244 213.747 312.244Z" fill="#010101"/>
<path d="M354.942 136.314H173.472L168.229 110.912C167.765 108.619 165.677 107 163.31 107H133.058C130.274 107 128 109.203 128 111.901C128 114.598 130.274 116.801 133.058 116.801H159.181L183.773 235.901C187.114 251.862 201.59 263.372 218.387 263.417H334.805C337.589 263.417 339.862 261.214 339.862 258.516C339.862 255.818 337.589 253.615 334.805 253.615H218.387C206.37 253.57 196.022 245.388 193.656 233.968L191.661 224.301H327.056C339.77 224.256 350.488 215.129 352.066 202.9L359.954 141.844C360 141.619 360 141.44 360 141.215C360 138.472 357.726 136.314 354.942 136.314ZM342.09 201.641C341.115 208.97 334.712 214.455 327.056 214.5H189.619L175.514 146.07H349.235L342.09 201.641Z" fill="#010101"/>
<path d="M153 232H103" stroke="black" stroke-width="6"/>
<line x1="128" y1="188" x2="78" y2="188" stroke="black" stroke-width="6"/>
<line x1="128" y1="276" x2="78" y2="276" stroke="black" stroke-width="6"/>
</svg>
